<svg width="225" height="168" viewBox="0 0 225 168" fill="none" xmlns="http://www.w3.org/2000/svg">
<g clip-path="url(#clip0)">
<path d="M75.7207 117.842C72.4439 117.842 69.184 116.591 66.6842 114.107L3.73284 51.1216C-1.24989 46.1362 -1.24989 38.0243 3.73284 33.0389L29.9133 6.84438C34.896 1.85897 43.0035 1.85897 47.9863 6.84438L74.1667 33.0389C75.0282 33.9008 76.4301 33.9008 77.2915 33.0389L103.472 6.84438C105.887 4.42773 109.097 3.09265 112.508 3.09265C115.92 3.09265 119.13 4.42773 121.545 6.84438L153.029 38.3454C155.09 40.4072 155.09 43.7533 153.029 45.832C150.968 47.8938 147.624 47.8938 145.563 45.832L114.062 14.331C113.505 13.7733 112.846 13.6888 112.508 13.6888C112.171 13.6888 111.512 13.7733 110.955 14.331L84.774 40.5255C79.7913 45.5109 71.7007 45.5109 66.7011 40.5255L40.5206 14.331C39.6592 13.4691 38.2573 13.4691 37.3958 14.331L11.2154 40.5255C10.354 41.3874 10.354 42.7901 11.2154 43.635L74.1667 106.637C75.0282 107.499 76.4301 107.499 77.2915 106.637L103.472 80.4426C105.887 78.0259 109.097 76.6909 112.508 76.6909C115.92 76.6909 119.13 78.0259 121.545 80.4426L147.725 106.637C148.587 107.499 149.989 107.499 150.85 106.637L213.802 43.6519C214.663 42.7901 214.663 41.3874 213.802 40.5424L182.317 9.02445C180.257 6.96268 180.257 3.61654 182.317 1.55478C184.378 -0.506988 187.722 -0.506988 189.783 1.55478L221.267 33.0389C223.683 35.4556 225.017 38.6665 225.017 42.0803C225.017 45.494 223.683 48.705 221.267 51.1216L158.316 114.107C153.333 119.092 145.226 119.092 140.243 114.107L114.062 87.9123C113.505 87.3546 112.846 87.2701 112.508 87.2701C112.171 87.2701 111.512 87.3546 110.955 87.9123L84.774 114.107C82.2742 116.608 78.9975 117.842 75.7207 117.842Z" fill="#FECB28"/>
<path d="M14.205 161.139L13.6476 162.761L12.0768 166.479H10.2695L8.66488 162.744L8.10749 161.156H7.95547L8.20883 163.403V168H5.81036V156.424H8.32707L11.1309 163.082L13.9854 156.424H16.5021V168H14.1037V163.386L14.3908 161.139H14.205Z" fill="#2E2F2F"/>
<path d="M28.3594 158.756H22.9206V161.037H27.9202V163.37H22.9206V165.651H28.3594V168H20.5052V156.407H28.3594V158.756Z" fill="#2E2F2F"/>
<path d="M36.2473 165.583C37.2945 165.583 38.2404 165.245 38.2404 164.316V160.192C38.2404 159.246 37.2945 158.857 36.2473 158.857H34.4062V165.6H36.2473V165.583ZM32.0078 168V156.424H36.2642C38.5444 156.424 40.6726 157.573 40.6726 160.192V164.316C40.6726 166.918 38.5444 168.017 36.2642 168.017H32.0078V168Z" fill="#2E2F2F"/>
<path d="M46.7026 156.424H44.3041V168H46.7026V156.424Z" fill="#2E2F2F"/>
<path d="M55.1817 158.976L54.8608 160.649L54.202 163.15H56.4147L55.6884 160.632L55.3675 158.976H55.1817ZM54.1176 156.424H56.4147L60.5698 168H58.0531L57.0397 165.347H53.594C53.2393 166.327 53.0028 166.969 52.6312 168H50.0638L54.1176 156.424Z" fill="#2E2F2F"/>
<path d="M76.6665 158.756H71.2446V161.037H76.2274V163.37H71.2446V165.651H76.6665V168H68.8124V156.407H76.6665V158.756Z" fill="#2E2F2F"/>
<path d="M87.3245 164.789C87.1894 164.029 87.0036 162.575 86.9867 162.339V156.424H89.3852V168H86.8178L83.2877 161.916L82.5783 160.344L82.4094 160.378L82.7134 162.356V168H80.298V156.424H82.6627L86.328 162.744L87.1387 164.84L87.3245 164.789Z" fill="#2E2F2F"/>
<path d="M101.867 156.407V158.824H98.5568V168H96.1245V158.824H92.814V156.407H101.867Z" fill="#2E2F2F"/>
<path d="M112.981 158.756H107.543V161.037H112.525V163.37H107.543V165.651H112.981V168H105.127V156.407H112.981V158.756Z" fill="#2E2F2F"/>
<path d="M121.19 161.578C122.254 161.578 122.93 161.156 122.93 160.142C122.93 159.161 122.204 158.807 121.19 158.84H119.045V161.578H121.19ZM126.139 168H123.183L119.89 163.758H119.045V168H116.63V156.424H121.19C123.504 156.424 125.261 157.488 125.328 160.125C125.328 162.254 124.366 163.285 122.693 163.606L126.139 168Z" fill="#2E2F2F"/>
<path d="M137.439 156.407V158.824H134.128V168H131.696V158.824H128.386V156.407H137.439Z" fill="#2E2F2F"/>
<path d="M143.857 158.976L143.537 160.649L142.878 163.15H145.107L144.364 160.632L144.043 158.976H143.857ZM142.793 156.424H145.09L149.246 168H146.729L145.715 165.347H142.27C141.915 166.327 141.679 166.969 141.307 168H138.74L142.793 156.424Z" fill="#2E2F2F"/>
<path d="M154.752 156.424H152.353V168H154.752V156.424Z" fill="#2E2F2F"/>
<path d="M165.781 164.789C165.646 164.029 165.461 162.575 165.444 162.339V156.424H167.842V168H165.275L161.745 161.916L161.035 160.344L160.866 160.378L161.17 162.356V168H158.772V156.424H161.137L164.802 162.744L165.613 164.84L165.781 164.789Z" fill="#2E2F2F"/>
<path d="M180.274 161.139L179.716 162.761L178.129 166.479H176.338L174.734 162.744L174.176 161.156H174.024L174.277 163.403V168H171.879V156.424H174.396L177.2 163.082L180.054 156.424H182.571V168H180.172V163.386L180.459 161.139H180.274Z" fill="#2E2F2F"/>
<path d="M194.428 158.756H188.989V161.037H193.972V163.37H188.989V165.651H194.428V168H186.574V156.407H194.428V158.756Z" fill="#2E2F2F"/>
<path d="M205.086 164.789C204.951 164.029 204.765 162.575 204.748 162.339V156.424H207.147V168H204.579L201.049 161.916L200.34 160.344L200.171 160.378L200.475 162.356V168H198.059V156.424H200.424L204.089 162.744L204.9 164.84L205.086 164.789Z" fill="#2E2F2F"/>
<path d="M219.629 156.407V158.824H216.318V168H213.886V158.824H210.575V156.407H219.629Z" fill="#2E2F2F"/>
</g>
<defs>
<clipPath id="clip0">
<rect width="225" height="168" fill="white"/>
</clipPath>
</defs>
</svg>
